<svg xmlns="http://www.w3.org/2000/svg" viewBox="0 0 256 256" width="256" height="256">
  <defs>
    <linearGradient id="bg" x1="0%" y1="0%" x2="100%" y2="100%">
      <stop offset="0%" style="stop-color:#1a1b26"/>
      <stop offset="100%" style="stop-color:#0a0a14"/>
    </linearGradient>
    <linearGradient id="conf" x1="0%" y1="0%" x2="100%" y2="100%">
      <stop offset="0%" style="stop-color:#7aa2f7"/>
      <stop offset="100%" style="stop-color:#3d59a1"/>
    </linearGradient>
  </defs>
  <style>
    @keyframes spin { 0% { transform: rotate(0deg); } 100% { transform: rotate(360deg); } }
    @keyframes pulse { 0%,100% { opacity: 0.4; } 50% { opacity: 0.9; } }
    .gear { animation: spin 8s linear infinite; transform-origin: 128px 100px; }
    .swatch-pulse { animation: pulse 2.5s ease-in-out infinite; }
  </style>
  <circle cx="128" cy="128" r="120" fill="url(#bg)" stroke="url(#conf)" stroke-width="3"/>
  <!-- Gear icon -->
  <g class="gear">
    <circle cx="128" cy="100" r="20" fill="none" stroke="#7aa2f7" stroke-width="3"/>
    <circle cx="128" cy="100" r="8" fill="#7aa2f7" opacity="0.5"/>
    <!-- Gear teeth -->
    <rect x="124" y="74" width="8" height="10" rx="2" fill="#7aa2f7"/>
    <rect x="124" y="116" width="8" height="10" rx="2" fill="#7aa2f7"/>
    <rect x="102" y="96" width="10" height="8" rx="2" fill="#7aa2f7"/>
    <rect x="144" y="96" width="10" height="8" rx="2" fill="#7aa2f7"/>
    <rect x="108" y="78" width="8" height="8" rx="2" fill="#7aa2f7" transform="rotate(-45 112 82)"/>
    <rect x="140" y="78" width="8" height="8" rx="2" fill="#7aa2f7" transform="rotate(45 144 82)"/>
    <rect x="108" y="112" width="8" height="8" rx="2" fill="#7aa2f7" transform="rotate(45 112 116)"/>
    <rect x="140" y="112" width="8" height="8" rx="2" fill="#7aa2f7" transform="rotate(-45 144 116)"/>
  </g>
  <!-- Color palette row (glass tokyonight palette) -->
  <g class="swatch-pulse">
    <rect x="56"  y="140" width="12" height="12" rx="2" fill="#f7768e"/>
    <rect x="74"  y="140" width="12" height="12" rx="2" fill="#9ece6a"/>
    <rect x="92"  y="140" width="12" height="12" rx="2" fill="#7aa2f7"/>
    <rect x="110" y="140" width="12" height="12" rx="2" fill="#e0af68"/>
    <rect x="128" y="140" width="12" height="12" rx="2" fill="#bb9af7"/>
    <rect x="146" y="140" width="12" height="12" rx="2" fill="#7dcfff"/>
    <rect x="164" y="140" width="12" height="12" rx="2" fill="#c0caf5"/>
    <rect x="182" y="140" width="12" height="12" rx="2" fill="#565f89"/>
  </g>
  <!-- Slider bars -->
  <rect x="60" y="162" width="136" height="3" rx="1" fill="#333"/>
  <circle cx="110" cy="163" r="5" fill="#7aa2f7" opacity="0.8"/>
  <rect x="60" y="172" width="136" height="3" rx="1" fill="#333"/>
  <circle cx="150" cy="173" r="5" fill="#9ece6a" opacity="0.8"/>
  <!-- Label -->
  <text x="128" y="206" font-family="monospace" font-size="20" font-weight="bold" fill="url(#conf)" text-anchor="middle" letter-spacing="1">glassconf</text>
  <text x="128" y="224" font-family="monospace" font-size="8" fill="#888" text-anchor="middle">TUI config for glass</text>
</svg>
